<?xml version="1.0" encoding="utf-8"?>
<!-- Generator: Adobe Illustrator 25.2.0, SVG Export Plug-In . SVG Version: 6.00 Build 0)  -->
<svg version="1.1" id="Layer_1" xmlns="http://www.w3.org/2000/svg" xmlns:xlink="http://www.w3.org/1999/xlink" x="0px" y="0px"
	 viewBox="0 0 32 32" style="enable-background:new 0 0 32 32;" xml:space="preserve">
<path d="M23.4,32c-0.3,0-0.6-0.1-0.9-0.3l0,0L7.7,16.9c-0.3-0.3-0.4-0.6-0.4-0.9c0-0.4,0.1-0.7,0.4-1L22.3,0.4
	c0.3-0.3,0.6-0.4,1-0.4c0.4,0,0.7,0.1,1,0.4c0.5,0.5,0.5,1.4,0,1.9L10.7,16l13.7,13.7c0.3,0.3,0.4,0.6,0.4,1c0,0.4-0.1,0.7-0.4,1
	C23.9,31.9,23.5,32,23.4,32z"/>
</svg>
