<svg width="44" height="36" viewBox="0 0 44 36" fill="none" xmlns="http://www.w3.org/2000/svg">
<path d="M39.3333 0.666748H4.66666C2.28333 0.666748 0.333328 2.61675 0.333328 5.00008V31.0001C0.333328 33.3834 2.28333 35.3334 4.66666 35.3334H39.3333C41.7167 35.3334 43.6667 33.3834 43.6667 31.0001V5.00008C43.6667 2.61675 41.7167 0.666748 39.3333 0.666748ZM38.4667 9.87508L24.2967 18.7367C22.8883 19.6251 21.1117 19.6251 19.7033 18.7367L5.53333 9.87508C4.99166 9.52841 4.66666 8.94342 4.66666 8.31508C4.66666 6.86342 6.24833 5.99675 7.48333 6.75508L22 15.8334L36.5167 6.75508C37.7517 5.99675 39.3333 6.86342 39.3333 8.31508C39.3333 8.94342 39.0083 9.52841 38.4667 9.87508Z" fill="#D4AF37"/>
</svg>
