<?xml version="1.0" encoding="utf-8"?>
<!-- Generator: Adobe Illustrator 25.2.0, SVG Export Plug-In . SVG Version: 6.00 Build 0)  -->
<svg version="1.1" id="Layer_1" xmlns="http://www.w3.org/2000/svg" xmlns:xlink="http://www.w3.org/1999/xlink" x="0px" y="0px"
	 viewBox="0 0 32 32" style="enable-background:new 0 0 32 32;" xml:space="preserve">
<path d="M10.7,3.6c-1,0-1.8,0.8-1.8,1.8s0.8,1.8,1.8,1.8s1.8-0.8,1.8-1.8S11.7,3.6,10.7,3.6z M5.7,3.6c1-2.8,4-4.2,6.8-3.2
	c1.5,0.5,2.7,1.7,3.2,3.2h12.7c1,0,1.8,0.8,1.8,1.8s-0.8,1.8-1.8,1.8H15.7c-1,2.8-4,4.2-6.8,3.2C7.4,9.8,6.2,8.7,5.7,7.1H3.6
	c-1,0-1.8-0.8-1.8-1.8s0.8-1.8,1.8-1.8L5.7,3.6L5.7,3.6z M21.3,14.2c-1,0-1.8,0.8-1.8,1.8s0.8,1.8,1.8,1.8s1.8-0.8,1.8-1.8
	S22.3,14.2,21.3,14.2z M16.3,14.2c1-2.8,4-4.2,6.8-3.2c1.5,0.5,2.7,1.7,3.2,3.2h2.1c1,0,1.8,0.8,1.8,1.8s-0.8,1.8-1.8,1.8h-2.1
	c-1,2.8-4,4.2-6.8,3.2c-1.5-0.5-2.7-1.7-3.2-3.2H3.6c-1,0-1.8-0.8-1.8-1.8s0.8-1.8,1.8-1.8C3.6,14.2,16.3,14.2,16.3,14.2z
	 M10.7,24.9c-1,0-1.8,0.8-1.8,1.8s0.8,1.8,1.8,1.8s1.8-0.8,1.8-1.8C12.5,25.7,11.7,24.9,10.7,24.9z M5.7,24.9c1-2.8,4-4.2,6.8-3.2
	c1.5,0.5,2.7,1.7,3.2,3.2h12.7c1,0,1.8,0.8,1.8,1.8s-0.8,1.8-1.8,1.8H15.7c-1,2.8-4,4.2-6.8,3.2c-1.5-0.5-2.7-1.7-3.2-3.2H3.6
	c-1,0-1.8-0.8-1.8-1.8s0.8-1.8,1.8-1.8H5.7z"/>
</svg>
