<?xml version="1.0" encoding="utf-8"?>
<!-- Generator: Adobe Illustrator 25.2.0, SVG Export Plug-In . SVG Version: 6.00 Build 0)  -->
<svg version="1.1" id="Layer_1" xmlns="http://www.w3.org/2000/svg" xmlns:xlink="http://www.w3.org/1999/xlink" x="0px" y="0px"
	 viewBox="0 0 32 32" style="enable-background:new 0 0 32 32;" xml:space="preserve">
<path d="M27.2,4.8C24.4,1.8,20.3,0,16,0S7.6,1.7,4.8,4.8c-2.3,2.7-3.5,6-3.1,9.3c0,0.7,0.2,1.3,0.3,1.8c1.5,7,9.1,13.2,12.4,15.5
	c0.5,0.3,1,0.5,1.6,0.5s1.2-0.2,1.6-0.5C20.8,29.2,28.5,23,30,16c0.2-0.5,0.2-1.2,0.3-1.8C30.7,10.8,29.5,7.5,27.2,4.8z M16,19.2
	c-2.5,0-4.6-2-4.6-4.7s2-4.7,4.6-4.7s4.6,2,4.6,4.7S18.5,19.2,16,19.2z"/>
</svg>
