<?xml version="1.0" encoding="utf-8"?>
<!-- Generator: Adobe Illustrator 25.2.0, SVG Export Plug-In . SVG Version: 6.00 Build 0)  -->
<svg version="1.1" id="Layer_1" xmlns="http://www.w3.org/2000/svg" xmlns:xlink="http://www.w3.org/1999/xlink" x="0px" y="0px"
	 viewBox="0 0 32 32" style="enable-background:new 0 0 32 32;" xml:space="preserve">
<path d="M28.7,3.8c-1.9-1.8-4.4-2.6-7-2.3c-2.2,0.2-4.2,1.3-5.7,2.9c-1.5-1.6-3.5-2.7-5.7-2.9c-2.5-0.3-5,0.5-7,2.3
	C1.4,5.5,0.2,8,0.1,10.6C0,13.3,1,15.9,2.8,17.8l11.4,11.9c0.5,0.5,1.2,0.8,1.9,0.8s1.4-0.2,1.9-0.7l11.2-11.9
	c1.8-1.9,2.8-4.5,2.7-7.2C31.8,8,30.6,5.5,28.7,3.8z"/>
</svg>
