<?xml version="1.0" encoding="utf-8"?>
<!-- Generator: Adobe Illustrator 25.2.0, SVG Export Plug-In . SVG Version: 6.00 Build 0)  -->
<svg version="1.1" id="Layer_1" xmlns="http://www.w3.org/2000/svg" xmlns:xlink="http://www.w3.org/1999/xlink" x="0px" y="0px"
	 viewBox="0 0 32 32" style="enable-background:new 0 0 32 32;" xml:space="preserve">
<g>
	<path d="M16,30.5c-0.7,0-1.4-0.3-1.9-0.8L2.7,17.8c-1.8-1.9-2.8-4.5-2.7-7.2C0.1,8,1.3,5.5,3.2,3.8c2-1.8,4.5-2.6,7-2.3
		c2.2,0.2,4.2,1.3,5.7,2.9c1.5-1.6,3.5-2.7,5.7-2.9c2.6-0.3,5.1,0.5,7,2.3c1.9,1.7,3.1,4.2,3.2,6.9c0.1,2.7-0.9,5.3-2.7,7.2
		L17.9,29.8C17.4,30.3,16.7,30.5,16,30.5z M16.2,27.7L16.2,27.7L16.2,27.7z M9.3,4.4C7.8,4.4,6.3,4.9,5.2,6C3.8,7.2,3,8.9,2.9,10.8
		c-0.1,1.9,0.6,3.7,1.9,5L16,27.5l11.2-11.7c1.3-1.3,2-3.1,1.9-5C29,8.9,28.2,7.2,26.8,6c-1.3-1.2-3-1.7-4.8-1.6
		c-1.8,0.2-3.3,1.1-4.4,2.6l-0.5,0.6c-0.5,0.8-1.8,0.8-2.4,0L14.4,7c-1.1-1.5-2.6-2.4-4.4-2.6C9.7,4.4,9.5,4.4,9.3,4.4z"/>
</g>
</svg>
