<?xml version="1.0" encoding="utf-8"?>
<!-- Generator: Adobe Illustrator 25.2.0, SVG Export Plug-In . SVG Version: 6.00 Build 0)  -->
<svg version="1.1" id="Layer_1" xmlns="http://www.w3.org/2000/svg" xmlns:xlink="http://www.w3.org/1999/xlink" x="0px" y="0px"
	 viewBox="0 0 32 32" style="enable-background:new 0 0 32 32;" xml:space="preserve">
<g>
	<path d="M31.4,31.2l-9.6-4.1c-0.3-0.1-0.7-0.2-1.1,0L11,30.7c-0.3,0.1-0.6,0.1-0.8,0l-9.6-4.1C0.2,26.4,0,26,0,25.6V6.8
		c0-0.3,0.3-0.5,0.6-0.4l6.1,2.4C7,3.3,11.6,0.1,16,0.1c4.2,0,8.6,3,9.3,8.1l6.3,2.9c0.3,0.1,0.4,0.4,0.4,0.7v19.1
		C32,31.1,31.7,31.3,31.4,31.2z M12,19.8V27c0,0.2,0.2,0.4,0.4,0.3l7-2.6c0.4-0.1,0.6-0.5,0.6-0.9v-4c-1.6,1.7-3,2.9-3.2,3L16,23.5
		l-0.8-0.7C15,22.7,13.6,21.6,12,19.8z M23,24.7l5.9,2.5c0.2,0.1,0.4-0.1,0.4-0.3V13.3c0-0.2-0.1-0.4-0.3-0.5L25.2,11
		c-0.4,1.9-1.3,3.8-2.5,5.5v7.6C22.7,24.4,22.8,24.6,23,24.7z M3.2,24.8l5.7,2.4c0.2,0.1,0.5-0.1,0.5-0.3V16.6
		c-1-1.5-1.9-3.1-2.3-4.8l-4-1.6c-0.2-0.1-0.3,0.1-0.3,0.2V24C2.7,24.3,2.9,24.6,3.2,24.8z M16,2.7c-3.2,0-6.7,2.3-6.7,6.7
		c0,4.2,4.7,8.9,6.7,10.6c2-1.7,6.7-6.4,6.7-10.6C22.7,5.1,19.2,2.7,16,2.7z M16.5,12c-1.9,0.4-3.5-1.3-3.1-3.1c0.2-1,1-1.9,2.1-2.1
		c1.9-0.4,3.5,1.3,3.1,3.1C18.4,11,17.6,11.8,16.5,12z M16,9.4L16,9.4L16,9.4z"/>
</g>
</svg>
