<?xml version="1.0" encoding="utf-8"?>
<!-- Generator: Adobe Illustrator 25.2.0, SVG Export Plug-In . SVG Version: 6.00 Build 0)  -->
<svg version="1.1" id="Layer_1" xmlns="http://www.w3.org/2000/svg" xmlns:xlink="http://www.w3.org/1999/xlink" x="0px" y="0px"
	 viewBox="0 0 32 32" style="enable-background:new 0 0 32 32;" xml:space="preserve">
<g>
	<path d="M0,6.4c0-0.9,0.7-1.6,1.6-1.6h12.8c0.9,0,1.6,0.7,1.6,1.6C16,7.3,15.3,8,14.4,8H1.6C0.7,8,0,7.3,0,6.4z"/>
	<path d="M0,16c0-0.9,0.7-1.6,1.6-1.6h28.8c0.9,0,1.6,0.7,1.6,1.6c0,0.9-0.7,1.6-1.6,1.6H1.6C0.7,17.6,0,16.9,0,16z"/>
	<path d="M1.6,24C0.7,24,0,24.7,0,25.6c0,0.9,0.7,1.6,1.6,1.6h19.2c0.9,0,1.6-0.7,1.6-1.6c0-0.9-0.7-1.6-1.6-1.6H1.6z"/>
</g>
</svg>
