<?xml version="1.0" encoding="utf-8"?>
<!-- Generator: Adobe Illustrator 25.2.0, SVG Export Plug-In . SVG Version: 6.00 Build 0)  -->
<svg version="1.1" id="Capa_1" xmlns="http://www.w3.org/2000/svg" xmlns:xlink="http://www.w3.org/1999/xlink" x="0px" y="0px"
	 viewBox="0 0 32 32" style="enable-background:new 0 0 32 32;" xml:space="preserve">
<path d="M29.8,21.3c-1.6-1.3-3.1-1.9-4.6-1.9c-2.1,0-3.6,1.3-4.9,2.7c-0.2,0.2-0.3,0.2-0.6,0.2c-1.1,0-3.2-1.4-6-4.3
	c-3.3-3.3-4.6-5.4-3.7-6.3c2.3-2.3,3-4.6-0.5-9C8.2,1.2,7,0.4,5.7,0.4C4,0.4,2.7,1.8,1.5,3C1.3,3.2,1.2,3.4,1,3.6
	c-1.3,1.3-1.3,4.1,0,7.6c1.4,3.8,4.3,7.9,7.9,11.6c2.9,2.9,6,5.2,9,6.7c2.6,1.4,5.2,2.1,7.2,2.1c0,0,0,0,0,0c1.3,0,2.3-0.3,3-0.8
	c1.4-1.1,3.9-3.2,3.9-5.7C32,23.7,31.3,22.4,29.8,21.3z"/>
</svg>
