<svg id="qr_code_scanner_black_24dp" xmlns="http://www.w3.org/2000/svg" width="100" height="100" viewBox="0 0 100 100">
  <rect id="Rectangle_2045" data-name="Rectangle 2045" width="100" height="100" fill="none"/>
  <path id="Path_2323" data-name="Path 2323" d="M34.375,21.425v12.95H21.425V21.425h12.95M40.85,14.95H14.95v25.9h25.9V14.95ZM34.375,55.958v12.95H21.425V55.958h12.95m6.475-6.475H14.95v25.9h25.9v-25.9ZM68.908,21.425v12.95H55.958V21.425h12.95m6.475-6.475h-25.9v25.9h25.9V14.95Zm-25.9,34.533h6.475v6.475H49.483Zm6.475,6.475h6.475v6.475H55.958Zm6.475-6.475h6.475v6.475H62.433Zm-12.95,12.95h6.475v6.475H49.483Zm6.475,6.475h6.475v6.475H55.958Zm6.475-6.475h6.475v6.475H62.433Zm6.475-6.475h6.475v6.475H68.908Zm0,12.95h6.475v6.475H68.908ZM84.017,23.583h0A4.329,4.329,0,0,1,79.7,19.267V10.633H71.067A4.329,4.329,0,0,1,66.75,6.317h0A4.329,4.329,0,0,1,71.067,2h12.95a4.329,4.329,0,0,1,4.317,4.317v12.95A4.329,4.329,0,0,1,84.017,23.583Zm4.317,60.433V71.067a4.329,4.329,0,0,0-4.317-4.317h0A4.329,4.329,0,0,0,79.7,71.067V79.7H71.067a4.329,4.329,0,0,0-4.317,4.317h0a4.329,4.329,0,0,0,4.317,4.317h12.95A4.329,4.329,0,0,0,88.333,84.017ZM6.317,88.333h12.95a4.329,4.329,0,0,0,4.317-4.317h0A4.329,4.329,0,0,0,19.267,79.7H10.633V71.067A4.329,4.329,0,0,0,6.317,66.75h0A4.329,4.329,0,0,0,2,71.067v12.95A4.329,4.329,0,0,0,6.317,88.333ZM2,6.317v12.95a4.329,4.329,0,0,0,4.317,4.317h0a4.329,4.329,0,0,0,4.317-4.317V10.633h8.633a4.329,4.329,0,0,0,4.317-4.317h0A4.329,4.329,0,0,0,19.267,2H6.317A4.329,4.329,0,0,0,2,6.317Z" transform="translate(4.833 4.833)" fill="#d4af37"/>
</svg>
