<?xml version="1.0" encoding="utf-8"?>
<!-- Generator: Adobe Illustrator 25.2.0, SVG Export Plug-In . SVG Version: 6.00 Build 0)  -->
<svg version="1.1" id="Capa_1" xmlns="http://www.w3.org/2000/svg" xmlns:xlink="http://www.w3.org/1999/xlink" x="0px" y="0px"
	 viewBox="0 0 32 32" style="enable-background:new 0 0 32 32;" xml:space="preserve">
<g>
	<g>
		<path d="M31.6,29.7l-9.2-9.2c1.8-2.2,2.9-4.9,2.9-8C25.3,5.6,19.6,0,12.7,0S0,5.6,0,12.6s5.7,12.5,12.7,12.5c3,0,5.7-1,7.9-2.7
			l9.2,9.2c0.5,0.5,1.3,0.5,1.9,0C32.1,31,32.1,30.2,31.6,29.7z M2.7,12.6c0-5.4,4.5-9.8,10-9.8s10,4.4,10,9.8s-4.5,9.8-10,9.8
			S2.7,18,2.7,12.6z"/>
	</g>
</g>
</svg>
